/* XPM */
static char * title_3_inactive_xpm[] = {
"5 24 52 1",
" 	c None",
".	c #005487",
"+	c #005486",
"@	c #015386",
"#	c #005386",
"$	c #005385",
"%	c #015385",
"&	c #005285",
"*	c #005384",
"=	c #005284",
"-	c #005283",
";	c #005183",
">	c #015183",
",	c #015283",
"'	c #005182",
")	c #015182",
"!	c #005181",
"~	c #005081",
"{	c #005080",
"]	c #015080",
"^	c #01507F",
"/	c #004F80",
"(	c #014F80",
"_	c #004F7F",
":	c #014F7F",
"<	c #004E7E",
"[	c #014E7E",
"}	c #014F7E",
"|	c #014E7D",
"1	c #004E7D",
"2	c #004D7D",
"3	c #004E7C",
"4	c #014E7C",
"5	c #004D7B",
"6	c #014D7B",
"7	c #004D7C",
"8	c #014C7B",
"9	c #004C7B",
"0	c #014C7A",
"a	c #014C79",
"b	c #014B7A",
"c	c #004B79",
"d	c #014B79",
"e	c #014B78",
"f	c #014B77",
"g	c #014A77",
"h	c #014A78",
"i	c #014A76",
"j	c #014A75",
"k	c #014976",
"l	c #004A76",
"m	c #014975",
".....",
".....",
"+@##+",
"$#$#%",
"&*$*$",
"==--=",
";->-,",
"')';)",
"!~)~'",
"{]{]]",
"^/(_:",
":_:::",
"<[}[<",
"|111|",
"234|4",
"56756",
"68898",
"000ab",
"cdcda",
"deeed",
"fgffh",
"ggigi",
"jkilk",
"mmmmm"};
