/* XPM */
static char * title_5_active_xpm[] = {
"5 24 36 1",
" 	c None",
".	c #3A587E",
"+	c #39B2FF",
"@	c #16A4FE",
"#	c #17A2FB",
"$	c #169CFA",
"%	c #179DFB",
"&	c #17A1F9",
"*	c #169BF8",
"=	c #159AF7",
"-	c #149AF8",
";	c #1399F7",
">	c #1699F4",
",	c #1498F4",
"'	c #1497F2",
")	c #1697F2",
"!	c #1596F1",
"~	c #1396F1",
"{	c #1591F1",
"]	c #1690EE",
"^	c #1390F1",
"/	c #1494EE",
"(	c #158FED",
"_	c #148FEE",
":	c #148EEC",
"<	c #148DEA",
"[	c #158EEB",
"}	c #178BE5",
"|	c #1786E5",
"1	c #198AE1",
"2	c #1885E2",
"3	c #1889E0",
"4	c #1985E1",
"5	c #1989DF",
"6	c #1A84DE",
"7	c #1C83DA",
".....",
"+++++",
"@@@@@",
"#####",
"$$%#$",
"&**&&",
"*****",
"=*==-",
"=====",
";>=;=",
",,,>,",
"'))))",
"'!'!!",
"~{~~~",
"]~]^/",
"((_((",
"_::::",
"<:::[",
"<<<<<",
"<}}}}",
"|||}}",
"12221",
"33435",
"66677"};
