/* XPM */
static char * top_left_inactive_xpm[] = {
"3 24 41 1",
" 	c None",
".	c #005487",
"+	c #005486",
"@	c #005386",
"#	c #005385",
"$	c #005285",
"%	c #015284",
"&	c #005284",
"*	c #015182",
"=	c #005183",
"-	c #005182",
";	c #005181",
">	c #015081",
",	c #005081",
"'	c #005080",
")	c #015080",
"!	c #014F7F",
"~	c #01507F",
"{	c #014F7E",
"]	c #004F7E",
"^	c #014E7E",
"/	c #014F7D",
"(	c #014D7C",
"_	c #004E7D",
":	c #014E7D",
"<	c #004D7C",
"[	c #014D7B",
"}	c #004C7B",
"|	c #004D7B",
"1	c #014C7A",
"2	c #014D7A",
"3	c #014C79",
"4	c #004B79",
"5	c #014B79",
"6	c #004B78",
"7	c #014B77",
"8	c #014B78",
"9	c #014A77",
"0	c #014A76",
"a	c #014A75",
"b	c #014975",
"...",
"...",
"+@.",
"@@#",
"#$%",
"&&&",
"**=",
"-;;",
">,,",
"'))",
")!~",
"{]!",
"^{/",
"(_:",
"(<(",
"[}|",
"}12",
"334",
"565",
"778",
"909",
"a0a",
"bbb",
"bbb"};
