/* XPM */
static char * title_1_active_xpm[] = {
"5 24 37 1",
" 	c None",
".	c #3A577E",
"+	c #39B2FF",
"@	c #16A4FE",
"#	c #169EFE",
"$	c #169DFC",
"%	c #16A3FC",
"&	c #169CFA",
"*	c #179CF9",
"=	c #169BF8",
"-	c #159AF7",
";	c #149AF8",
">	c #1399F7",
",	c #1699F4",
"'	c #1498F4",
")	c #1491F2",
"!	c #1697F2",
"~	c #1692F2",
"{	c #1591F1",
"]	c #1390F1",
"^	c #1690EE",
"/	c #1396F1",
"(	c #148FEE",
"_	c #158FED",
":	c #148EEC",
"<	c #148DEA",
"[	c #158EEB",
"}	c #1488EA",
"|	c #1787E5",
"1	c #1786E5",
"2	c #1985E1",
"3	c #1885E2",
"4	c #1884E0",
"5	c #1984DF",
"6	c #1A84DE",
"7	c #1C83DA",
"8	c #1C7EDA",
".....",
"+++++",
"@@@@#",
"$%%%%",
"&&$%&",
"*==**",
"=====",
"-=--;",
"-----",
">,->-",
"''','",
")!~~!",
"){){{",
"]{]]]",
"^/^](",
"__(__",
"(::::",
"<:::[",
"<<<<}",
"<||||",
"11111",
"23332",
"44245",
"66678"};
