/* XPM */
static char * top_right_inactive_xpm[] = {
"3 24 39 1",
" 	c None",
".	c #005487",
"+	c #005486",
"@	c #005386",
"#	c #005385",
"$	c #005384",
"%	c #005284",
"&	c #005283",
"*	c #015183",
"=	c #005182",
"-	c #005081",
";	c #015081",
">	c #005080",
",	c #014F7F",
"'	c #014E7E",
")	c #004E7E",
"!	c #004F7E",
"~	c #014E7D",
"{	c #004E7D",
"]	c #014E7C",
"^	c #004D7C",
"/	c #014D7D",
"(	c #014D7C",
"_	c #014C7B",
":	c #004D7B",
"<	c #014D7A",
"[	c #014C7A",
"}	c #004C79",
"|	c #004C7A",
"1	c #014B79",
"2	c #014B78",
"3	c #014C79",
"4	c #004B78",
"5	c #014A78",
"6	c #014A77",
"7	c #014A76",
"8	c #014976",
"9	c #004975",
"0	c #014975",
"...",
"...",
"...",
"+++",
"@##",
"$$%",
"%%&",
"*==",
"==-",
"--;",
">>>",
",,,",
"')!",
"~{)",
"]^/",
"(_:",
"<_[",
"}|1",
"232",
"245",
"666",
"787",
"900",
"000"};
