/* XPM */
static char * hide_active_xpm[] = {
"14 15 23 1",
" 	c None",
".	c #17A1F9",
"+	c #169BF8",
"@	c #159AF7",
"#	c #149AF8",
"$	c #1399F7",
"%	c #1699F4",
"&	c #1498F4",
"*	c #1697F2",
"=	c #1497F2",
"-	c #1596F1",
";	c #F1F1F1",
">	c #1396F1",
",	c #1591F1",
"'	c #1390F1",
")	c #1494EE",
"!	c #1690EE",
"~	c #158FED",
"{	c #148FEE",
"]	c #148EEC",
"^	c #158EEB",
"/	c #148DEA",
"(	c #178BE5",
"...++...++.++.",
"++++++++++++++",
"@#@+@@#@+@@+@@",
"@@@@@@@@@@@@@@",
"$@$%@$@$%@$%@$",
"%&&&&%&&&&&&&%",
"**=****=**=***",
"--=;;;;;;;;-=-",
">>>;;;;;;;;,>>",
"')!>!'!'>!'>!'",
"~~~~{~~~~{~~{~",
"]]{]]]]{]]{]]]",
"]^/]]]^/]]/]]]",
"//////////////",
"((/((((/((/((("};
