/* XPM */
static char * top_right_active_xpm[] = {
"3 24 20 1",
" 	c None",
".	c #3A587E",
"+	c #39B2FF",
"@	c #17A2FB",
"#	c #169CFA",
"$	c #17A1F9",
"%	c #169BF8",
"&	c #159AF7",
"*	c #1399F7",
"=	c #1498F4",
"-	c #1497F2",
";	c #1396F1",
">	c #1690EE",
",	c #158FED",
"'	c #148FEE",
")	c #148DEA",
"!	c #1786E5",
"~	c #198AE1",
"{	c #1889E0",
"]	c #1A84DE",
".. ",
"+..",
"++.",
"@+.",
"#+.",
"$+.",
"%+.",
"&+.",
"&+.",
"*+.",
"=+.",
"-+.",
"-+.",
";+.",
">+.",
",+.",
"'+.",
")+.",
")+.",
")+.",
"!+.",
"~+.",
"{+.",
"]+."};
